<svg width="140" height="140" viewBox="0 0 140 140" fill="none" xmlns="http://www.w3.org/2000/svg">
<path d="M97.9723 61.0749C97.7487 61.0749 97.523 61.039 97.3058 60.9652L84.9702 56.8562L62.1193 56.8815H62.1172C61.5582 56.8815 61.0203 56.66 60.6259 56.2634C60.2314 55.8669 60.0078 55.3311 60.0078 54.7721V4.11334C60.0078 2.94686 60.9507 2.00397 62.1172 2.00397H104.3C105.467 2.00397 106.41 2.94686 106.41 4.11334V54.7468C106.41 55.9133 105.467 56.8562 104.3 56.8562H100.084L100.082 58.9676C100.082 59.6447 99.7548 60.2818 99.2042 60.6783C98.8414 60.9378 98.409 61.0749 97.9723 61.0749V61.0749ZM85.3119 52.6374C85.5376 52.6374 85.7633 52.6754 85.9784 52.7471L95.8651 56.0419L95.8672 54.7468C95.8693 53.5824 96.8122 52.6395 97.9766 52.6395H102.191V6.22272H64.2266V52.6606L85.3119 52.6374Z" fill="black"/>
<path d="M41.0234 56.8564C40.6079 56.8564 40.1945 56.7319 39.8401 56.4936C39.2621 56.0991 38.9141 55.4473 38.9141 54.747V52.6376H34.6953C33.5288 52.6376 32.5859 51.6947 32.5859 50.5283V18.8918C32.5859 17.7254 33.5288 16.7825 34.6953 16.7825H62.1003C63.2668 16.7825 64.2097 17.7254 64.2097 18.8918C64.2097 20.0583 63.2668 21.0012 62.1003 21.0012H36.8047V48.4189H41.0234C42.1899 48.4189 43.1328 49.3618 43.1328 50.5283V51.6315L50.7877 48.5686C51.0366 48.4695 51.3024 48.4189 51.5703 48.4189H51.5745L62.1045 48.4442C63.271 48.4463 64.2118 49.3934 64.2097 50.5578C64.2076 51.7222 63.2626 52.6629 62.1003 52.6629C62.0982 52.6629 62.0961 52.6629 62.0961 52.6629L51.9732 52.6376L41.806 56.7066C41.555 56.8058 41.2892 56.8564 41.0234 56.8564V56.8564Z" fill="black"/>
<path d="M74.7693 132.781C73.6028 132.781 72.6599 131.838 72.6599 130.672C72.6599 123.692 78.3362 118.016 85.3162 118.016C86.4826 118.016 87.4255 118.958 87.4255 120.125C87.4255 121.291 86.4826 122.234 85.3162 122.234C80.6629 122.234 76.8787 126.019 76.8787 130.672C76.8787 131.838 75.9358 132.781 74.7693 132.781Z" fill="black"/>
<path d="M91.6443 122.234H85.3162C84.1497 122.234 83.2068 121.291 83.2068 120.125C83.2068 118.958 84.1497 118.016 85.3162 118.016H91.6443C92.8108 118.016 93.7537 118.958 93.7537 120.125C93.7537 121.291 92.8108 122.234 91.6443 122.234Z" fill="black"/>
<path d="M74.7693 136.996C73.6028 136.996 72.6599 136.053 72.6599 134.886V130.672C72.6599 129.505 73.6028 128.562 74.7693 128.562C75.9358 128.562 76.8787 129.505 76.8787 130.672V134.886C76.8787 136.053 75.9358 136.996 74.7693 136.996Z" fill="black"/>
<path d="M125.394 132.781C124.228 132.781 123.285 131.838 123.285 130.672C123.285 126.019 119.501 122.234 114.847 122.234C113.681 122.234 112.738 121.291 112.738 120.125C112.738 118.958 113.681 118.016 114.847 118.016C121.827 118.016 127.504 123.692 127.504 130.672C127.504 131.838 126.561 132.781 125.394 132.781Z" fill="black"/>
<path d="M114.847 122.234H108.519C107.353 122.234 106.41 121.291 106.41 120.125C106.41 118.958 107.353 118.016 108.519 118.016H114.847C116.014 118.016 116.957 118.958 116.957 120.125C116.957 121.291 116.014 122.234 114.847 122.234Z" fill="black"/>
<path d="M125.394 136.996C124.228 136.996 123.285 136.053 123.285 134.886V130.672C123.285 129.505 124.228 128.562 125.394 128.562C126.561 128.562 127.504 129.505 127.504 130.672V134.886C127.504 136.053 126.561 136.996 125.394 136.996Z" fill="black"/>
<path d="M91.6443 122.234C90.4778 122.234 89.5349 121.291 89.5349 120.125V111.823C89.5349 110.656 90.4778 109.713 91.6443 109.713C92.8108 109.713 93.7537 110.656 93.7537 111.823V120.125C93.7537 121.291 92.8108 122.234 91.6443 122.234Z" fill="black"/>
<path d="M108.519 122.234C107.353 122.234 106.41 121.291 106.41 120.125V111.823C106.41 110.656 107.353 109.713 108.519 109.713C109.686 109.713 110.629 110.656 110.629 111.823V120.125C110.629 121.291 109.686 122.234 108.519 122.234Z" fill="black"/>
<path d="M100.078 115.906C88.4486 115.906 78.988 106.446 78.988 94.8167C78.988 93.6502 79.9309 92.7073 81.0974 92.7073C82.2639 92.7073 83.2068 93.6502 83.2068 94.8167C83.2068 104.119 90.7752 111.687 100.078 111.687C109.384 111.687 116.957 104.119 116.957 94.8167C116.957 93.6502 117.9 92.7073 119.066 92.7073C120.233 92.7073 121.176 93.6502 121.176 94.8167C121.176 106.446 111.711 115.906 100.078 115.906Z" fill="black"/>
<path d="M81.0974 97.0294C79.9309 97.0294 78.988 96.0865 78.988 94.92V82.1562C78.988 80.9897 79.9309 80.0468 81.0974 80.0468C82.2639 80.0468 83.2068 80.9897 83.2068 82.1562V94.92C83.2068 96.0865 82.2639 97.0294 81.0974 97.0294Z" fill="black"/>
<path d="M119.066 96.926C117.9 96.926 116.957 95.9831 116.957 94.8167V82.1562C116.957 80.9897 117.9 80.0468 119.066 80.0468C120.233 80.0468 121.176 80.9897 121.176 82.1562V94.8167C121.176 95.9831 120.233 96.926 119.066 96.926Z" fill="black"/>
<path d="M119.066 84.2613C117.9 84.2613 116.957 83.3185 116.957 82.152C116.957 78.6652 114.118 75.8281 110.629 75.8281C109.462 75.8281 108.519 74.8852 108.519 73.7187C108.519 72.5522 109.462 71.6093 110.629 71.6093C116.444 71.6093 121.176 76.3385 121.176 82.152C121.176 83.3185 120.233 84.2613 119.066 84.2613Z" fill="black"/>
<path d="M110.629 75.8281C109.462 75.8281 108.519 74.8852 108.519 73.7187V65.2812C108.519 64.1148 109.462 63.1719 110.629 63.1719C111.795 63.1719 112.738 64.1148 112.738 65.2812V73.7187C112.738 74.8852 111.795 75.8281 110.629 75.8281Z" fill="black"/>
<path d="M110.629 67.3906H97.9724C96.8059 67.3906 95.863 66.4477 95.863 65.2812C95.863 64.1148 96.8059 63.1719 97.9724 63.1719H110.629C111.795 63.1719 112.738 64.1148 112.738 65.2812C112.738 66.4477 111.795 67.3906 110.629 67.3906Z" fill="black"/>
<path d="M81.0974 84.2656C79.9309 84.2656 78.988 83.3227 78.988 82.1562C78.988 71.6874 87.5036 63.1719 97.9724 63.1719C99.1389 63.1719 100.082 64.1148 100.082 65.2812C100.082 66.4477 99.1389 67.3906 97.9724 67.3906C89.8323 67.3906 83.2068 74.0162 83.2068 82.1562C83.2068 83.3227 82.2639 84.2656 81.0974 84.2656Z" fill="black"/>
<path d="M119.064 90.6464C118.659 90.6464 118.248 90.5283 117.885 90.2857L111.557 86.0142C110.591 85.3603 110.338 84.0504 110.987 83.0843C111.639 82.1203 112.947 81.8672 113.917 82.5147L120.245 86.7862C121.211 87.4401 121.465 88.7501 120.815 89.7161C120.408 90.3215 119.741 90.6464 119.064 90.6464V90.6464Z" fill="black"/>
<path d="M101.137 88.4844C93.5175 88.4844 87.0312 86.3581 86.7612 86.2674C85.658 85.8983 85.0589 84.7065 85.4239 83.6012C85.7909 82.498 86.9827 81.8947 88.0901 82.2617C88.1513 82.2849 94.2242 84.2656 101.137 84.2656C107.84 84.2656 111.768 82.3925 111.808 82.3735C112.848 81.8694 114.116 82.2955 114.628 83.3375C115.141 84.3795 114.719 85.6367 113.681 86.1556C113.489 86.2484 108.912 88.4844 101.137 88.4844V88.4844Z" fill="black"/>
<path d="M81.0995 90.6475C80.4224 90.6475 79.7559 90.3226 79.3488 89.7193C78.697 88.7532 78.9522 87.4433 79.9183 86.7894L86.2464 82.5179C87.2146 81.8682 88.5224 82.1214 89.1763 83.0875C89.8281 84.0536 89.5729 85.3635 88.6068 86.0174L82.2787 90.2889C81.9159 90.5314 81.5045 90.6475 81.0995 90.6475V90.6475Z" fill="black"/>
<path d="M95.8608 124.344C95.5444 124.344 95.2217 124.272 94.9201 124.122L90.7013 122.013C89.6593 121.492 89.2374 120.224 89.7584 119.182C90.2815 118.14 91.5472 117.722 92.5892 118.239L96.8079 120.349C97.85 120.87 98.2719 122.137 97.7508 123.179C97.3796 123.918 96.635 124.344 95.8608 124.344Z" fill="black"/>
<path d="M95.865 124.344C95.0908 124.344 94.3462 123.918 93.975 123.177C93.454 122.135 93.8758 120.867 94.9179 120.346L99.1366 118.237C100.177 117.72 101.444 118.138 101.967 119.18C102.488 120.222 102.067 121.49 101.025 122.011L96.8058 124.12C96.5041 124.272 96.1814 124.344 95.865 124.344V124.344Z" fill="black"/>
<path d="M104.302 124.344C103.528 124.344 102.784 123.918 102.412 123.177C101.891 122.135 102.313 120.867 103.355 120.346L107.574 118.237C108.618 117.72 109.882 118.138 110.405 119.18C110.926 120.222 110.504 121.49 109.462 122.011L105.243 124.12C104.942 124.272 104.619 124.344 104.302 124.344V124.344Z" fill="black"/>
<path d="M104.298 124.344C103.982 124.344 103.659 124.272 103.358 124.122L99.1388 122.013C98.0968 121.492 97.6749 120.224 98.1959 119.182C98.719 118.14 99.9868 117.722 101.027 118.239L105.245 120.349C106.287 120.87 106.709 122.137 106.188 123.179C105.817 123.918 105.072 124.344 104.298 124.344Z" fill="black"/>
<path d="M19.9338 96.8396C18.7674 96.8396 17.8245 95.8967 17.8245 94.7302V85.6177C17.8245 84.4513 18.7674 83.5084 19.9338 83.5084C21.1003 83.5084 22.0432 84.4513 22.0432 85.6177V94.7302C22.0432 95.8967 21.1003 96.8396 19.9338 96.8396Z" fill="black"/>
<path d="M57.9026 96.9218C56.7361 96.9218 55.7932 95.9789 55.7932 94.8124V85.3203C55.7932 84.1538 56.7361 83.2109 57.9026 83.2109C59.0691 83.2109 60.012 84.1538 60.012 85.3203V94.8124C60.012 95.9789 59.0691 96.9218 57.9026 96.9218Z" fill="black"/>
<path d="M57.9026 87.4297C56.7361 87.4297 55.7932 86.4868 55.7932 85.3203C55.7932 75.4337 47.7502 67.3906 37.8635 67.3906C27.9769 67.3906 19.9338 75.4337 19.9338 85.3203C19.9338 86.4868 18.9909 87.4297 17.8245 87.4297C16.658 87.4297 15.7151 86.4868 15.7151 85.3203C15.7151 73.107 25.6502 63.1719 37.8635 63.1719C50.0768 63.1719 60.012 73.107 60.012 85.3203C60.012 86.4868 59.0691 87.4297 57.9026 87.4297Z" fill="black"/>
<path d="M57.9046 90.5937C57.2697 90.5937 56.6432 90.3089 56.2276 89.7668C51.047 82.9978 48.7119 83.6918 42.4661 85.5459C37.0956 87.147 29.7423 89.3365 17.4953 87.4022C16.3457 87.2208 15.5589 86.1408 15.7424 84.9891C15.9238 83.8395 17.0059 83.0442 18.1555 83.2362C29.4491 85.0207 36.2793 82.9894 41.2637 81.5023C47.8576 79.5427 52.6248 78.1209 59.5794 87.1997C60.2882 88.1236 60.1131 89.4483 59.1871 90.157C58.8032 90.4524 58.3518 90.5937 57.9046 90.5937V90.5937Z" fill="black"/>
<path d="M47.3978 84.3268C46.9886 84.3268 46.5731 84.2066 46.2103 83.9598C45.2484 83.3016 45.0016 81.9896 45.6576 81.0277L51.9414 71.8266C52.6017 70.8648 53.9116 70.6222 54.8756 71.274C55.8374 71.9321 56.0842 73.2441 55.4282 74.206L49.1444 83.4071C48.7331 84.0062 48.0728 84.3268 47.3978 84.3268V84.3268Z" fill="black"/>
<path d="M13.6057 132.781C12.4392 132.781 11.4963 131.838 11.4963 130.672C11.4963 123.692 17.1727 118.016 24.1526 118.016C25.3191 118.016 26.262 118.958 26.262 120.125C26.262 121.291 25.3191 122.234 24.1526 122.234C19.4993 122.234 15.7151 126.019 15.7151 130.672C15.7151 131.838 14.7722 132.781 13.6057 132.781V132.781Z" fill="black"/>
<path d="M30.4807 122.234H24.1526C22.9861 122.234 22.0432 121.291 22.0432 120.125C22.0432 118.958 22.9861 118.016 24.1526 118.016H30.4807C31.6472 118.016 32.5901 118.958 32.5901 120.125C32.5901 121.291 31.6472 122.234 30.4807 122.234Z" fill="black"/>
<path d="M13.6057 136.996C12.4392 136.996 11.4963 136.053 11.4963 134.886V130.672C11.4963 129.505 12.4392 128.562 13.6057 128.562C14.7722 128.562 15.7151 129.505 15.7151 130.672V134.886C15.7151 136.053 14.7722 136.996 13.6057 136.996Z" fill="black"/>
<path d="M64.2307 132.781C63.0642 132.781 62.1213 131.838 62.1213 130.672C62.1213 126.019 58.3371 122.234 53.6838 122.234C52.5174 122.234 51.5745 121.291 51.5745 120.125C51.5745 118.958 52.5174 118.016 53.6838 118.016C60.6638 118.016 66.3401 123.692 66.3401 130.672C66.3401 131.838 65.3972 132.781 64.2307 132.781Z" fill="black"/>
<path d="M53.6838 122.234H47.3557C46.1892 122.234 45.2463 121.291 45.2463 120.125C45.2463 118.958 46.1892 118.016 47.3557 118.016H53.6838C54.8503 118.016 55.7932 118.958 55.7932 120.125C55.7932 121.291 54.8503 122.234 53.6838 122.234Z" fill="black"/>
<path d="M64.2307 136.996C63.0642 136.996 62.1213 136.053 62.1213 134.886V130.672C62.1213 129.505 63.0642 128.562 64.2307 128.562C65.3972 128.562 66.3401 129.505 66.3401 130.672V134.886C66.3401 136.053 65.3972 136.996 64.2307 136.996Z" fill="black"/>
<path d="M30.4807 122.234C29.3142 122.234 28.3713 121.291 28.3713 120.125V111.823C28.3713 110.656 29.3142 109.713 30.4807 109.713C31.6472 109.713 32.5901 110.656 32.5901 111.823V120.125C32.5901 121.291 31.6472 122.234 30.4807 122.234Z" fill="black"/>
<path d="M47.3557 122.234C46.1892 122.234 45.2463 121.291 45.2463 120.125V111.823C45.2463 110.656 46.1892 109.713 47.3557 109.713C48.5222 109.713 49.4651 110.656 49.4651 111.823V120.125C49.4651 121.291 48.5222 122.234 47.3557 122.234Z" fill="black"/>
<path d="M38.9182 115.906C27.2871 115.906 17.8245 106.446 17.8245 94.8167C17.8245 93.6502 18.7674 92.7073 19.9338 92.7073C21.1003 92.7073 22.0432 93.6502 22.0432 94.8167C22.0432 104.119 29.6138 111.687 38.9182 111.687C48.2227 111.687 55.7932 104.119 55.7932 94.8167C55.7932 93.6502 56.7361 92.7073 57.9026 92.7073C59.0691 92.7073 60.012 93.6502 60.012 94.8167C60.012 106.446 50.5493 115.906 38.9182 115.906Z" fill="black"/>
<path d="M34.6973 124.344C34.3809 124.344 34.0581 124.272 33.7565 124.122L29.5377 122.013C28.4957 121.492 28.0738 120.224 28.5948 119.182C29.118 118.14 30.3815 117.722 31.4256 118.239L35.6444 120.349C36.6864 120.87 37.1083 122.137 36.5873 123.179C36.216 123.918 35.4714 124.344 34.6973 124.344V124.344Z" fill="black"/>
<path d="M34.7016 124.344C33.9275 124.344 33.1829 123.918 32.8116 123.177C32.2906 122.135 32.7125 120.867 33.7545 120.346L37.9733 118.237C39.0132 117.72 40.2809 118.138 40.8041 119.18C41.3251 120.222 40.9032 121.49 39.8612 122.011L35.6424 124.12C35.3408 124.272 35.0181 124.344 34.7016 124.344V124.344Z" fill="black"/>
<path d="M43.1391 124.344C42.365 124.344 41.6204 123.918 41.2491 123.177C40.7281 122.135 41.15 120.867 42.192 120.346L46.4108 118.237C47.4528 117.72 48.7184 118.138 49.2416 119.18C49.7626 120.222 49.3407 121.49 48.2987 122.011L44.0799 124.12C43.7783 124.272 43.4556 124.344 43.1391 124.344V124.344Z" fill="black"/>
<path d="M43.1348 124.344C42.8184 124.344 42.4956 124.272 42.194 124.122L37.9752 122.013C36.9332 121.492 36.5113 120.224 37.0323 119.182C37.5555 118.14 38.8232 117.722 39.8631 118.239L44.0819 120.349C45.1239 120.87 45.5458 122.137 45.0248 123.179C44.6535 123.918 43.9089 124.344 43.1348 124.344V124.344Z" fill="black"/>
<path d="M95.8585 109.589C95.3101 109.589 94.7637 109.376 94.3503 108.954C93.5361 108.121 93.5509 106.787 94.3841 105.971L96.5356 103.866C97.3709 103.052 98.7041 103.066 99.5183 103.9C100.333 104.733 100.318 106.066 99.4845 106.882L97.333 108.988C96.9238 109.388 96.3901 109.589 95.8585 109.589V109.589Z" fill="black"/>
<path d="M102.225 107.484H98.01C96.8435 107.484 95.9006 106.541 95.9006 105.374C95.9006 104.208 96.8435 103.265 98.01 103.265H102.225C103.391 103.265 104.334 104.208 104.334 105.374C104.334 106.541 103.389 107.484 102.225 107.484Z" fill="black"/>
<path d="M104.3 109.589C103.756 109.589 103.21 109.378 102.798 108.96L100.723 106.855C99.9044 106.024 99.9128 104.691 100.744 103.872C101.571 103.054 102.908 103.062 103.727 103.893L105.802 105.998C106.621 106.83 106.612 108.163 105.781 108.981C105.372 109.386 104.836 109.589 104.3 109.589V109.589Z" fill="black"/>
<path d="M95.8587 109.589C88.8767 109.589 83.1982 103.912 83.1982 96.9324C83.1982 95.7659 84.1411 94.823 85.3076 94.823C86.4741 94.823 87.417 95.7659 87.417 96.9324C87.417 101.586 91.2033 105.37 95.8587 105.37C97.0252 105.37 97.9681 106.313 97.9681 107.479C97.9681 108.646 97.0252 109.589 95.8587 109.589Z" fill="black"/>
<path d="M85.3054 99.0424C84.989 99.0424 84.6663 98.9706 84.3625 98.8209L80.148 96.7094C79.1081 96.1863 78.6862 94.9185 79.2072 93.8765C79.7282 92.8366 80.9896 92.4168 82.0401 92.9357L86.2546 95.0472C87.2945 95.5703 87.7164 96.838 87.1954 97.8801C86.8241 98.6163 86.0795 99.0424 85.3054 99.0424V99.0424Z" fill="black"/>
<path d="M104.3 109.589C103.134 109.589 102.191 108.646 102.191 107.479C102.191 106.313 103.134 105.37 104.3 105.37C108.954 105.37 112.738 101.586 112.738 96.9324C112.738 95.7659 113.681 94.823 114.847 94.823C116.014 94.823 116.957 95.7659 116.957 96.9324C116.957 103.91 111.28 109.589 104.3 109.589Z" fill="black"/>
<path d="M114.849 99.0418C114.075 99.0418 113.331 98.6157 112.959 97.8774C112.438 96.8354 112.86 95.5676 113.9 95.0445L118.115 92.933C119.163 92.4141 120.424 92.8339 120.948 93.8738C121.469 94.9158 121.047 96.1836 120.007 96.7067L115.792 98.8182C115.489 98.97 115.166 99.0418 114.849 99.0418V99.0418Z" fill="black"/>
<path d="M83.2361 27.3019C79.7472 27.3019 76.908 24.4627 76.908 20.9738C76.908 17.4849 79.7472 14.6457 83.2361 14.6457C86.725 14.6457 89.5642 17.4849 89.5642 20.9738C89.5642 24.4627 86.725 27.3019 83.2361 27.3019ZM83.2361 18.8644C82.0717 18.8644 81.1267 19.8094 81.1267 20.9738C81.1267 22.1382 82.0717 23.0832 83.2361 23.0832C84.4005 23.0832 85.3455 22.1382 85.3455 20.9738C85.3455 19.8094 84.3983 18.8644 83.2361 18.8644Z" fill="black"/>
<path d="M83.2361 18.8665C82.0696 18.8665 81.1267 17.9237 81.1267 16.7572V12.5405C81.1267 11.374 82.0696 10.4312 83.2361 10.4312C84.4026 10.4312 85.3455 11.374 85.3455 12.5405V16.7572C85.3455 17.9237 84.4005 18.8665 83.2361 18.8665Z" fill="black"/>
<path d="M74.8025 48.3999C74.6064 48.3999 74.4081 48.3725 74.2119 48.3155C73.0939 47.9907 72.4527 46.8179 72.7775 45.6999L79.1014 24.0345C79.4284 22.9165 80.5928 22.2774 81.7171 22.6001C82.835 22.925 83.4763 24.0978 83.1514 25.2158L76.8275 46.8812C76.5575 47.8029 75.7159 48.3999 74.8025 48.3999Z" fill="black"/>
<path d="M91.6778 48.3999C90.7623 48.3999 89.9228 47.8029 89.6528 46.8811L83.3204 25.2158C82.9935 24.0978 83.6347 22.9271 84.7548 22.6001C85.8749 22.2753 87.0435 22.9144 87.3704 24.0345L93.7028 45.6999C94.0298 46.8179 93.3885 47.9886 92.2684 48.3155C92.0701 48.3725 91.8719 48.3999 91.6778 48.3999V48.3999Z" fill="black"/>
<path d="M91.6736 37.851H74.7986C73.6321 37.851 72.6892 36.9081 72.6892 35.7416C72.6892 34.5751 73.6321 33.6322 74.7986 33.6322H91.6736C92.8401 33.6322 93.783 34.5751 93.783 35.7416C93.783 36.9081 92.838 37.851 91.6736 37.851Z" fill="black"/>
</svg>
