<svg width="140" height="140" viewBox="0 0 140 140" fill="none" xmlns="http://www.w3.org/2000/svg">
<g clip-path="url(#clip0)">
<path d="M135.022 113.243C133.93 113.243 133.045 114.128 133.045 115.221V128.434C133.045 128.617 132.896 128.767 132.712 128.767H125.198V99.8746C125.198 98.7825 124.313 97.897 123.22 97.897C122.128 97.897 121.243 98.7825 121.243 99.8746V128.767H106.722L110.652 124.444C111.259 123.776 111.545 122.827 111.418 121.906C111.415 121.887 111.412 121.867 111.409 121.847L106.991 95.745L107.804 94.5213L108.016 94.6716C108.741 95.1865 109.665 95.3742 110.559 95.1509C111.438 94.9313 112.173 94.3404 112.578 93.5304V93.5301L117.073 84.5202L127.342 88.4972C127.747 88.6733 133.044 91.102 133.044 97.4211V105.991C133.044 107.084 133.929 107.969 135.022 107.969C136.114 107.969 136.999 107.084 136.999 105.992V97.4214C136.999 88.2957 129.172 84.9732 128.839 84.8361C128.826 84.8308 128.814 84.8258 128.801 84.821L111.316 78.0489V74.4472C114.045 72.2513 115.962 69.0865 116.538 65.4786C117.899 65.3078 119.162 64.7628 120.21 63.8613C121.713 62.5688 122.575 60.688 122.575 58.7018C122.575 57.1163 122.025 55.5991 121.04 54.3942V49.058C121.04 38.615 112.544 30.1193 102.101 30.1193C97.4129 30.1193 93.1203 31.8352 89.8094 34.6676C89.7667 33.1523 89.2243 31.7084 88.2791 30.5525V25.2166C88.2791 14.7736 79.7831 6.27783 69.3406 6.27783C58.8976 6.27783 50.4019 14.7739 50.4019 25.2166V30.6917C49.4514 31.8276 48.9195 33.1971 48.8726 34.6507C46.7601 32.8454 44.2317 31.4861 41.4139 30.7442C40.356 30.4657 39.2757 31.0967 38.9976 32.153C38.7194 33.2092 39.3501 34.2911 40.4064 34.5692C46.9752 36.2989 51.5631 42.2571 51.5631 49.0577V52.0153C51.4777 51.9977 51.2035 51.9505 51.1929 51.9489C51.166 51.3907 51.0247 51.0498 50.7204 50.6121C50.2142 49.8846 49.305 48.9784 46.3809 45.8354C45.3389 44.7161 43.6535 44.5107 42.3742 45.3471C37.3657 48.6187 31.281 50.2862 25.6342 49.9547C23.7948 49.8469 22.646 50.655 22.1564 51.9795C22.1126 51.9866 21.6235 52.0852 21.5963 52.0918V49.0577C21.5963 42.5005 25.978 36.6014 32.2515 34.7116C33.2973 34.3968 33.8897 33.2936 33.5749 32.2476C33.2598 31.2016 32.155 30.6092 31.1106 30.9245C27.2953 32.0736 23.8657 34.4661 21.4545 37.6608C18.9593 40.9656 17.6407 44.9067 17.6407 49.058V54.5334C16.6446 55.7236 16.1059 57.1701 16.1059 58.7018C16.1059 62.0873 18.6002 65.0399 22.154 65.4802C22.7362 69.0037 24.6478 72.3826 27.6647 74.68V78.05L10.1983 84.8216C10.1859 84.8263 10.1735 84.8313 10.1612 84.8363C9.82735 84.9732 2 88.2955 2 97.4211V128.434C2 130.799 3.92375 132.722 6.28861 132.722H67.1891C68.0402 132.722 68.832 132.47 69.5001 132.041C70.1678 132.47 70.9598 132.722 71.8112 132.722H132.712C135.077 132.722 137 130.799 137 128.434V115.221C137 114.128 136.115 113.243 135.022 113.243ZM21.9605 61.3941C20.8011 60.9733 20.0604 59.9009 20.0604 58.7012C20.0604 57.5377 20.9042 56.5816 21.9605 56.1278V61.3941ZM113.369 83.0856L109.487 90.8655C109.487 90.8649 105.176 87.8029 105.114 87.7594C106.974 85.4634 106.101 86.542 109.968 81.7685L113.369 83.0856ZM102.256 85.0046L97.1413 78.6915V76.7944C98.8038 77.3692 100.595 77.6344 102.28 77.635C102.281 77.635 102.281 77.635 102.281 77.635H102.282C104.024 77.6347 105.789 77.3038 107.36 76.7124V78.7036L102.256 85.0046ZM104.578 92.23L103.85 93.325H100.662L99.9347 92.23L102.256 90.5812L104.578 92.23ZM69.4949 61.1629L64.3804 54.8498V52.9527C66.0363 53.5251 67.8253 53.7927 69.5194 53.7933C69.5196 53.7933 69.5202 53.7933 69.5204 53.7933H69.5207C71.2604 53.7933 73.0246 53.4634 74.5995 52.8709V54.8619L69.4949 61.1629ZM71.8165 68.3888L71.089 69.4838H67.901L67.1735 68.3888L69.4951 66.7401L71.8165 68.3888ZM53.9216 41.449C54.2449 41.537 54.5771 41.5969 54.9144 41.6385C55.4965 45.162 57.4082 48.5409 60.4251 50.8383V54.2083L56.3907 55.7721C56.1568 55.2809 55.8644 54.8181 55.5174 54.3939V49.058C55.5174 46.3743 54.9521 43.7946 53.9216 41.449ZM80.0035 39.3549C80.0035 45.1433 75.2817 49.8374 69.5207 49.8374C63.0209 49.8374 58.6772 44.8 58.6772 39.3549V30.0916C64.9217 30.3415 71.4089 28.4908 76.7126 25.1897C78.4958 27.1018 79.5568 28.2127 80.0037 28.7284C80.0035 33.6519 80.0035 35.553 80.0035 39.3549ZM83.7769 41.6372C84.1123 41.595 84.4429 41.5349 84.7643 41.4471C83.7371 43.778 83.1623 46.3514 83.1623 49.058V54.5331C82.8583 54.8962 82.5967 55.283 82.3802 55.6888L78.5549 54.2075V50.6057C81.2841 48.4096 83.2013 45.2448 83.7769 41.6372ZM61.7756 57.93L66.6303 63.9222L63.3197 66.2736C63.3178 66.2749 63.3165 66.2763 63.3147 66.2776L62.2639 67.024L58.3819 59.2444L61.7756 57.93ZM74.0464 61.8281L77.207 57.9268L80.6081 59.2439L76.7266 67.024L75.6735 66.2763C75.6724 66.2755 75.6714 66.2744 75.6703 66.2736L72.3536 63.9177L74.0464 61.8281ZM75.043 70.6798L75.2548 70.8301C75.9941 71.3554 76.922 71.5289 77.7984 71.3095C78.6767 71.0898 79.4126 70.499 79.8171 69.689V69.6887L83.1546 62.9996C84.3013 64.4129 85.9598 65.2725 87.6679 65.4858C88.2712 69.2668 90.3149 72.4936 93.1863 74.68V78.0497L76.3735 84.5679L74.2299 71.9038L75.043 70.6798ZM94.5365 81.7714L99.3912 87.7636C97.2687 89.2716 95.1348 90.7874 95.0248 90.8655L91.1428 83.0858L94.5365 81.7714ZM112.764 63.1966C112.765 68.8436 108.179 73.6791 102.282 73.6791C95.5601 73.6791 91.4381 68.4146 91.4381 63.1966V53.9333C97.6381 54.1809 104.134 52.3547 109.473 49.0314C111.256 50.9435 112.317 52.0543 112.764 52.5701C112.764 57.4934 112.764 59.3947 112.764 63.1966ZM118.62 58.7015C118.62 59.9033 117.877 60.9736 116.72 61.3941V56.0144C117.916 56.45 118.62 57.5429 118.62 58.7015ZM87.1176 49.0577C87.1176 40.7958 93.8394 34.0743 102.101 34.0743C110.363 34.0743 117.084 40.7961 117.084 49.0577V52.0153C116.994 51.9966 116.747 51.9539 116.714 51.9489C116.687 51.3902 116.545 51.0484 116.241 50.6121C115.722 49.8656 114.823 48.9749 111.902 45.8354C110.882 44.7406 109.2 44.4941 107.895 45.3471C103.023 48.5301 96.8663 50.3281 91.0083 49.9476C89.3628 49.8398 88.1707 50.6455 87.6774 51.9797C87.6333 51.9868 87.145 52.0855 87.1173 52.0921V49.0577H87.1176ZM87.4828 56.1281V61.3915C86.32 60.9722 85.5828 59.897 85.5828 58.7012C85.5825 57.5377 86.4257 56.5821 87.4828 56.1281ZM85.8588 34.8601C85.8588 35.6927 85.4984 36.4803 84.8701 37.0206C84.6003 37.2526 84.2929 37.4309 83.9588 37.5524V32.1727C85.1414 32.602 85.8588 33.6891 85.8588 34.8601ZM69.3398 10.2329C77.6017 10.2329 84.3232 16.9544 84.3232 25.2163V28.1739C84.2338 28.1554 83.986 28.1125 83.953 28.1074C83.9237 27.5018 83.7492 27.1295 83.393 26.6478C82.8635 25.9311 81.8874 24.9458 79.141 21.9937C78.104 20.8802 76.4197 20.6653 75.1343 21.5054C69.9884 24.8672 63.746 26.5033 58.0879 26.098C56.7036 25.9933 55.4003 26.8297 54.9167 28.1378C54.8727 28.1449 54.3841 28.2435 54.3567 28.2501V25.2166H54.3564C54.3564 16.9544 61.0782 10.2329 69.3398 10.2329ZM54.7214 32.2864V37.5527C53.562 37.1319 52.8213 36.0595 52.8213 34.8598C52.8213 33.7028 53.6585 32.7433 54.7214 32.2864ZM51.1977 56.0144C52.304 56.4171 53.0146 57.3824 53.085 58.5296C53.1736 59.8052 52.3897 60.9588 51.1977 61.3917V56.0144ZM51.0144 65.4852C52.8796 65.2519 54.5916 64.2689 55.7143 62.7568L59.1732 69.6887C59.1732 69.6887 59.1732 69.6887 59.1734 69.689C59.5777 70.4992 60.3136 71.0898 61.1918 71.3095C62.0601 71.5265 62.989 71.3604 63.7355 70.8301L63.9472 70.6798L64.7601 71.9035L62.6173 84.5642L45.794 78.0487V74.4485H45.7937C48.5947 72.1901 50.4523 68.9992 51.0144 65.4852ZM36.7334 85.0046L31.619 78.6915V76.7944C33.2749 77.3668 35.0641 77.6344 36.7582 77.6347C36.7585 77.6347 36.759 77.6347 36.7593 77.6347C38.5275 77.6347 40.2888 77.2951 41.8381 76.7124V78.7036L36.7334 85.0046ZM39.0553 92.23L38.3278 93.325H35.1398L34.4123 92.23L36.734 90.5812L39.0553 92.23ZM44.4456 81.7685L47.8469 83.0858L43.9651 90.8655L42.912 90.1177C42.911 90.1169 42.9099 90.1158 42.9089 90.115L39.5922 87.7594L44.4456 81.7685ZM25.9158 63.1966V53.9333C32.1935 54.184 38.6849 52.3088 43.9509 49.0314C45.7172 50.9256 46.7946 52.0538 47.2421 52.5701C47.2421 57.4936 47.2421 59.395 47.2421 63.1966C47.2421 68.948 42.5527 73.6791 36.7593 73.6791C30.3091 73.6791 25.9158 68.6991 25.9158 63.1966ZM29.0145 81.7714L33.8692 87.7636L30.5585 90.115C30.5567 90.1164 30.5553 90.1177 30.5535 90.119L29.5028 90.8655L25.6207 83.0858L29.0145 81.7714ZM17.7578 128.767V99.8746C17.7578 98.7825 16.8726 97.897 15.7803 97.897C14.6879 97.897 13.8027 98.7825 13.8027 99.8746V128.767H6.28861C6.10457 128.767 5.95533 128.618 5.95533 128.434V97.4211C5.95533 91.0695 11.3071 88.6485 11.6535 88.4987L21.9159 84.5202L26.4117 93.5301C26.4117 93.5301 26.4117 93.5301 26.412 93.5304C26.8162 94.3406 27.5521 94.9313 28.4307 95.1509C29.299 95.3679 30.2279 95.2018 30.9743 94.6716L31.186 94.5213L31.9989 95.745L27.5811 121.847C27.5777 121.867 27.5748 121.887 27.5719 121.906C27.4448 122.827 27.7309 123.775 28.3381 124.444L32.2676 128.767H17.7578V128.767ZM31.5504 122.097L35.7505 97.2803H37.7172L41.9175 122.097L36.734 127.8L31.5504 122.097ZM67.5221 128.434C67.5221 128.618 67.3728 128.767 67.1891 128.767H59.6755V99.8746C59.6755 98.7825 58.7903 97.897 57.6979 97.897C56.6056 97.897 55.7204 98.7825 55.7204 99.8746V128.767H41.2L45.13 124.444C45.737 123.776 46.0231 122.827 45.8957 121.906C45.8928 121.887 45.8899 121.867 45.8865 121.847L41.4687 95.745L42.2816 94.5213L42.4933 94.6716C43.0225 95.0475 43.649 95.2437 44.2847 95.2437C45.4446 95.2437 46.5249 94.5938 47.0559 93.5304V93.5301L51.5512 84.5205L61.8199 88.4974C64.8131 89.7994 67.5218 93.1573 67.5218 97.4211V128.434H67.5221ZM69.4999 90.235C68.6806 88.9151 67.5901 87.6938 66.2754 86.6515L68.5116 73.4391H70.4784L72.7156 86.6583C71.3659 87.7301 70.2896 88.9625 69.4999 90.235ZM83.2799 128.767V99.8746C83.2799 98.7825 82.3947 97.897 81.3023 97.897C80.2099 97.897 79.3248 98.7825 79.3248 99.8746V128.767H71.811C71.6272 128.767 71.4777 128.618 71.4777 128.434V97.4211C71.4777 95.0702 72.2149 92.905 73.7853 91.0859C74.8324 89.8849 76.2211 88.9124 77.1761 88.4987L87.4385 84.5199L91.9343 93.5301C91.9343 93.5301 91.9343 93.5301 91.9346 93.5304C92.3388 94.3406 93.0747 94.9313 93.953 95.1509C94.8213 95.3679 95.7502 95.2018 96.4967 94.6716L96.7084 94.5213L97.5213 95.745L93.1035 121.847C93.1 121.867 93.0971 121.887 93.0942 121.906C92.9672 122.827 93.2532 123.775 93.8605 124.444L97.79 128.767H83.2799V128.767ZM97.0725 122.098L101.273 97.2806H103.24L107.44 122.098L102.256 127.8L97.0725 122.098Z" fill="black"/>
</g>
<defs>
<clipPath id="clip0">
<rect width="135" height="135" fill="white" transform="translate(2 2)"/>
</clipPath>
</defs>
</svg>
