<svg width="140" height="140" viewBox="0 0 140 140" fill="none" xmlns="http://www.w3.org/2000/svg">
<g clip-path="url(#clip0)">
<path d="M10.4395 77.9418C9.27297 77.9418 8.33008 76.9989 8.33008 75.8324V67.6754C8.33008 66.5089 9.27297 65.566 10.4395 65.566C11.6059 65.566 12.5488 66.5089 12.5488 67.6754V75.8324C12.5488 76.9989 11.6059 77.9418 10.4395 77.9418Z" fill="black"/>
<path d="M39.9707 77.9418C38.8042 77.9418 37.8613 76.9989 37.8613 75.8324V66.3402C37.8613 65.1737 38.8042 64.2308 39.9707 64.2308C41.1372 64.2308 42.0801 65.1737 42.0801 66.3402V75.8324C42.0801 76.9989 41.1372 77.9418 39.9707 77.9418Z" fill="black"/>
<path d="M39.9707 68.4496C38.8042 68.4496 37.8613 67.5067 37.8613 66.3402C37.8613 58.7802 31.7104 52.6293 24.1483 52.6293C16.5883 52.6293 10.4395 58.7802 10.4395 66.3402C10.4395 67.5067 9.49656 68.4496 8.33008 68.4496C7.16359 68.4496 6.2207 67.5067 6.2207 66.3402C6.2207 56.4536 14.2638 48.4105 24.1483 48.4105C34.037 48.4105 42.0801 56.4536 42.0801 66.3402C42.0801 67.5067 41.1372 68.4496 39.9707 68.4496V68.4496Z" fill="black"/>
<path d="M39.9729 71.3415C39.338 71.3415 38.7115 71.0567 38.296 70.5146C34.2228 65.1927 33.1133 65.6356 28.9852 67.2704C25.0238 68.8377 19.0374 71.2149 8.00114 69.4684C6.85153 69.287 6.06473 68.207 6.24825 67.0552C6.42755 65.9056 7.50966 65.1104 8.66137 65.3023C18.5586 66.8675 23.6865 64.832 27.4327 63.347C32.5121 61.3325 35.9208 60.4719 41.6457 67.9475C42.3544 68.8714 42.1793 70.1961 41.2533 70.9048C40.8715 71.2002 40.4201 71.3415 39.9729 71.3415V71.3415Z" fill="black"/>
<path d="M31.5311 66.2916C31.221 66.2916 30.9025 66.222 30.6051 66.0744C29.5588 65.5618 29.1285 64.2962 29.6411 63.252L33.8599 54.6627C34.3724 53.6164 35.636 53.1861 36.6822 53.6987C37.7285 54.2112 38.1588 55.4769 37.6462 56.521L33.4274 65.1104C33.0604 65.8571 32.3095 66.2916 31.5311 66.2916V66.2916Z" fill="black"/>
<path d="M6.2207 105.355C5.05422 105.355 4.11133 104.412 4.11133 103.246C4.11133 98.5925 7.89555 94.8083 12.5488 94.8083C13.7153 94.8083 14.6582 95.7512 14.6582 96.9177C14.6582 98.0841 13.7153 99.027 12.5488 99.027C10.2222 99.027 8.33008 100.919 8.33008 103.246C8.33008 104.412 7.38719 105.355 6.2207 105.355V105.355Z" fill="black"/>
<path d="M18.877 99.0397H12.5488C11.3823 99.0397 10.4395 98.0968 10.4395 96.9304C10.4395 95.7639 11.3823 94.821 12.5488 94.821H18.877C20.0434 94.821 20.9863 95.7639 20.9863 96.9304C20.9863 98.0968 20.0434 99.0397 18.877 99.0397Z" fill="black"/>
<path d="M6.2207 113.801C5.05422 113.801 4.11133 112.858 4.11133 111.692V103.246C4.11133 102.079 5.05422 101.136 6.2207 101.136C7.38719 101.136 8.33008 102.079 8.33008 103.246V111.692C8.33008 112.858 7.38719 113.801 6.2207 113.801Z" fill="black"/>
<path d="M44.1895 105.355C43.023 105.355 42.0801 104.412 42.0801 103.246C42.0801 100.919 40.188 99.027 37.8613 99.027C36.6948 99.027 35.752 98.0841 35.752 96.9177C35.752 95.7512 36.6948 94.8083 37.8613 94.8083C42.5146 94.8083 46.2988 98.5925 46.2988 103.246C46.2988 104.412 45.3559 105.355 44.1895 105.355Z" fill="black"/>
<path d="M37.8613 99.0397H31.5332C30.3667 99.0397 29.4238 98.0968 29.4238 96.9304C29.4238 95.7639 30.3667 94.821 31.5332 94.821H37.8613C39.0278 94.821 39.9707 95.7639 39.9707 96.9304C39.9707 98.0968 39.0278 99.0397 37.8613 99.0397Z" fill="black"/>
<path d="M44.1895 113.801C43.023 113.801 42.0801 112.858 42.0801 111.692V103.246C42.0801 102.079 43.023 101.136 44.1895 101.136C45.3559 101.136 46.2988 102.079 46.2988 103.246V111.692C46.2988 112.858 45.3559 113.801 44.1895 113.801Z" fill="black"/>
<path d="M18.877 99.0397C17.7105 99.0397 16.7676 98.0968 16.7676 96.9303V89.1594C16.7676 87.9929 17.7105 87.05 18.877 87.05C20.0434 87.05 20.9863 87.9929 20.9863 89.1594V96.9303C20.9863 98.0968 20.0434 99.0397 18.877 99.0397Z" fill="black"/>
<path d="M31.5332 99.027C30.3667 99.027 29.4238 98.0841 29.4238 96.9176V89.1594C29.4238 87.9929 30.3667 87.05 31.5332 87.05C32.6997 87.05 33.6426 87.9929 33.6426 89.1594V96.9176C33.6426 98.0841 32.6997 99.027 31.5332 99.027Z" fill="black"/>
<path d="M25.2051 92.6905C15.9006 92.6905 8.33008 85.1241 8.33008 75.8239C8.33008 74.6574 9.27297 73.7145 10.4395 73.7145C11.6059 73.7145 12.5488 74.6574 12.5488 75.8239C12.5488 82.7996 18.2252 88.4717 25.2051 88.4717C32.185 88.4717 37.8613 82.7996 37.8613 75.8239C37.8613 74.6574 38.8042 73.7145 39.9707 73.7145C41.1372 73.7145 42.0801 74.6574 42.0801 75.8239C42.0801 85.1241 34.5095 92.6905 25.2051 92.6905V92.6905Z" fill="black"/>
<path d="M99.0288 77.9417C97.8623 77.9417 96.9194 76.9989 96.9194 75.8324V58.9489C96.9194 57.7824 97.8623 56.8395 99.0288 56.8395C100.195 56.8395 101.138 57.7824 101.138 58.9489V75.8324C101.138 76.9989 100.195 77.9417 99.0288 77.9417Z" fill="black"/>
<path d="M128.56 77.9417C127.394 77.9417 126.451 76.9988 126.451 75.8323V75.2143C126.451 74.0478 127.394 73.1049 128.56 73.1049C129.727 73.1049 130.669 74.0478 130.669 75.2143V75.8323C130.669 76.9988 129.727 77.9417 128.56 77.9417Z" fill="black"/>
<path d="M94.8101 105.355C93.6436 105.355 92.7007 104.412 92.7007 103.246C92.7007 98.5925 96.4849 94.8083 101.138 94.8083C102.305 94.8083 103.248 95.7512 103.248 96.9177C103.248 98.0841 102.305 99.027 101.138 99.027C98.8115 99.027 96.9194 100.919 96.9194 103.246C96.9194 104.412 95.9765 105.355 94.8101 105.355Z" fill="black"/>
<path d="M107.466 99.0397H101.138C99.9717 99.0397 99.0288 98.0968 99.0288 96.9304C99.0288 95.7639 99.9717 94.821 101.138 94.821H107.466C108.633 94.821 109.576 95.7639 109.576 96.9304C109.576 98.0968 108.633 99.0397 107.466 99.0397Z" fill="black"/>
<path d="M94.8101 113.801C93.6436 113.801 92.7007 112.858 92.7007 111.692V103.246C92.7007 102.079 93.6436 101.136 94.8101 101.136C95.9765 101.136 96.9194 102.079 96.9194 103.246V111.692C96.9194 112.858 95.9765 113.801 94.8101 113.801Z" fill="black"/>
<path d="M132.779 105.355C131.612 105.355 130.669 104.412 130.669 103.246C130.669 100.919 128.777 99.027 126.451 99.027C125.284 99.027 124.341 98.0841 124.341 96.9177C124.341 95.7512 125.284 94.8083 126.451 94.8083C131.104 94.8083 134.888 98.5925 134.888 103.246C134.888 104.412 133.945 105.355 132.779 105.355Z" fill="black"/>
<path d="M126.451 99.0397H120.123C118.956 99.0397 118.013 98.0968 118.013 96.9304C118.013 95.7639 118.956 94.821 120.123 94.821H126.451C127.617 94.821 128.56 95.7639 128.56 96.9304C128.56 98.0968 127.617 99.0397 126.451 99.0397Z" fill="black"/>
<path d="M132.779 113.801C131.612 113.801 130.669 112.858 130.669 111.692V103.246C130.669 102.079 131.612 101.136 132.779 101.136C133.945 101.136 134.888 102.079 134.888 103.246V111.692C134.888 112.858 133.945 113.801 132.779 113.801Z" fill="black"/>
<path d="M107.466 99.0397C106.3 99.0397 105.357 98.0968 105.357 96.9303V89.1594C105.357 87.9929 106.3 87.05 107.466 87.05C108.633 87.05 109.576 87.9929 109.576 89.1594V96.9303C109.576 98.0968 108.633 99.0397 107.466 99.0397Z" fill="black"/>
<path d="M120.123 99.027C118.956 99.027 118.013 98.0841 118.013 96.9176V89.1594C118.013 87.9929 118.956 87.05 120.123 87.05C121.289 87.05 122.232 87.9929 122.232 89.1594V96.9176C122.232 98.0841 121.289 99.027 120.123 99.027Z" fill="black"/>
<path d="M113.794 92.6905C104.49 92.6905 96.9194 85.1241 96.9194 75.8239C96.9194 74.6574 97.8623 73.7145 99.0288 73.7145C100.195 73.7145 101.138 74.6574 101.138 75.8239C101.138 82.7996 106.815 88.4717 113.794 88.4717C120.774 88.4717 126.451 82.7996 126.451 75.8239C126.451 74.6574 127.394 73.7145 128.56 73.7145C129.727 73.7145 130.669 74.6574 130.669 75.8239C130.669 85.1241 123.099 92.6905 113.794 92.6905Z" fill="black"/>
<path d="M44.1875 128.567C43.021 128.567 42.0781 127.624 42.0781 126.457C42.0781 119.477 47.7545 113.801 54.7344 113.801C55.9009 113.801 56.8438 114.744 56.8438 115.91C56.8438 117.077 55.9009 118.02 54.7344 118.02C50.0811 118.02 46.2969 121.804 46.2969 126.457C46.2969 127.624 45.354 128.567 44.1875 128.567Z" fill="black"/>
<path d="M61.0625 118.02H54.7344C53.5679 118.02 52.625 117.077 52.625 115.91C52.625 114.744 53.5679 113.801 54.7344 113.801H61.0625C62.229 113.801 63.1719 114.744 63.1719 115.91C63.1719 117.077 62.229 118.02 61.0625 118.02Z" fill="black"/>
<path d="M44.1875 137.004C43.021 137.004 42.0781 136.061 42.0781 134.895V126.457C42.0781 125.291 43.021 124.348 44.1875 124.348C45.354 124.348 46.2969 125.291 46.2969 126.457V134.895C46.2969 136.061 45.354 137.004 44.1875 137.004Z" fill="black"/>
<path d="M94.8125 128.567C93.646 128.567 92.7031 127.624 92.7031 126.457C92.7031 121.804 88.9189 118.02 84.2656 118.02C83.0991 118.02 82.1562 117.077 82.1562 115.91C82.1562 114.744 83.0991 113.801 84.2656 113.801C91.2455 113.801 96.9219 119.477 96.9219 126.457C96.9219 127.624 95.979 128.567 94.8125 128.567Z" fill="black"/>
<path d="M84.2656 118.02H77.9375C76.771 118.02 75.8281 117.077 75.8281 115.91C75.8281 114.744 76.771 113.801 77.9375 113.801H84.2656C85.4321 113.801 86.375 114.744 86.375 115.91C86.375 117.077 85.4321 118.02 84.2656 118.02Z" fill="black"/>
<path d="M94.8125 137.004C93.646 137.004 92.7031 136.061 92.7031 134.895V126.457C92.7031 125.291 93.646 124.348 94.8125 124.348C95.979 124.348 96.9219 125.291 96.9219 126.457V134.895C96.9219 136.061 95.979 137.004 94.8125 137.004Z" fill="black"/>
<path d="M61.0625 118.02C59.896 118.02 58.9531 117.077 58.9531 115.91V107.608C58.9531 106.441 59.896 105.499 61.0625 105.499C62.229 105.499 63.1719 106.441 63.1719 107.608V115.91C63.1719 117.077 62.229 118.02 61.0625 118.02Z" fill="black"/>
<path d="M77.9375 118.02C76.771 118.02 75.8281 117.077 75.8281 115.91V107.608C75.8281 106.441 76.771 105.499 77.9375 105.499C79.104 105.499 80.0469 106.441 80.0469 107.608V115.91C80.0469 117.077 79.104 118.02 77.9375 118.02Z" fill="black"/>
<path d="M69.4979 111.692C57.8668 111.692 48.4062 102.231 48.4062 90.6022C48.4062 89.4357 49.3491 88.4929 50.5156 88.4929C51.6821 88.4929 52.625 89.4357 52.625 90.6022C52.625 99.9046 60.1934 107.473 69.4979 107.473C78.8045 107.473 86.375 99.9046 86.375 90.6022C86.375 89.4357 87.3179 88.4929 88.4844 88.4929C89.6509 88.4929 90.5938 89.4357 90.5938 90.6022C90.5938 102.231 81.1311 111.692 69.4979 111.692V111.692Z" fill="black"/>
<path d="M50.5156 92.8149C49.3491 92.8149 48.4062 91.872 48.4062 90.7056V77.9417C48.4062 76.7752 49.3491 75.8323 50.5156 75.8323C51.6821 75.8323 52.625 76.7752 52.625 77.9417V90.7056C52.625 91.8699 51.6821 92.8149 50.5156 92.8149Z" fill="black"/>
<path d="M88.4844 92.7116C87.3179 92.7116 86.375 91.7687 86.375 90.6022V77.9417C86.375 76.7752 87.3179 75.8323 88.4844 75.8323C89.6509 75.8323 90.5938 76.7752 90.5938 77.9417V90.6022C90.5938 91.7687 89.6509 92.7116 88.4844 92.7116Z" fill="black"/>
<path d="M88.4844 80.0511C87.3179 80.0511 86.375 79.1082 86.375 77.9418C86.375 74.4529 83.5358 71.6136 80.0469 71.6136C78.8804 71.6136 77.9375 70.6708 77.9375 69.5043C77.9375 68.3378 78.8804 67.3949 80.0469 67.3949C85.8624 67.3949 90.5938 72.1262 90.5938 77.9418C90.5938 79.1082 89.6509 80.0511 88.4844 80.0511Z" fill="black"/>
<path d="M80.0469 71.6136C78.8804 71.6136 77.9375 70.6707 77.9375 69.5043V61.0668C77.9375 59.9003 78.8804 58.9574 80.0469 58.9574C81.2134 58.9574 82.1562 59.9003 82.1562 61.0668V69.5043C82.1562 70.6707 81.2134 71.6136 80.0469 71.6136Z" fill="black"/>
<path d="M80.0469 63.2056H67.3906C66.2241 63.2056 65.2812 62.2627 65.2812 61.0963C65.2812 59.9298 66.2241 58.9869 67.3906 58.9869H80.0469C81.2134 58.9869 82.1562 59.9298 82.1562 61.0963C82.1562 62.2627 81.2134 63.2056 80.0469 63.2056Z" fill="black"/>
<path d="M50.5156 80.0511C49.3491 80.0511 48.4062 79.1082 48.4062 77.9418C48.4062 67.4729 56.9218 58.9574 67.3906 58.9574C68.5571 58.9574 69.5 59.9003 69.5 61.0668C69.5 62.2333 68.5571 63.1761 67.3906 63.1761C59.2505 63.1761 52.625 69.8017 52.625 77.9418C52.625 79.1082 51.6821 80.0511 50.5156 80.0511Z" fill="black"/>
<path d="M88.482 86.432C88.077 86.432 87.6657 86.3138 87.3029 86.0713L80.9747 81.7998C80.0086 81.1459 79.7555 79.836 80.4052 78.8699C81.0591 77.9038 82.3669 77.6528 83.3351 78.3003L89.6633 82.5718C90.6294 83.2257 90.8825 84.5356 90.2328 85.5017C89.8257 86.1071 89.1591 86.432 88.482 86.432V86.432Z" fill="black"/>
<path d="M70.5546 84.2698C62.9355 84.2698 56.4492 82.1436 56.1792 82.0529C55.076 81.6837 54.4769 80.4919 54.8418 79.3866C55.2089 78.2834 56.3985 77.6802 57.5081 78.0472C57.5692 78.0683 63.6421 80.049 70.5567 80.049C77.2603 80.049 81.1879 78.1759 81.228 78.1569C82.27 77.6527 83.5357 78.0788 84.0482 79.1209C84.5608 80.1629 84.1389 81.4201 83.1011 81.939C82.905 82.0339 78.3297 84.2698 70.5546 84.2698V84.2698Z" fill="black"/>
<path d="M50.5175 86.4321C49.8404 86.4321 49.1738 86.1072 48.7667 85.5039C48.1149 84.5379 48.3702 83.2279 49.3363 82.574L55.6644 78.3025C56.6347 77.6529 57.9404 77.906 58.5943 78.8721C59.2461 79.8382 58.9909 81.1481 58.0248 81.802L51.6966 86.0735C51.3338 86.316 50.9225 86.4321 50.5175 86.4321V86.4321Z" fill="black"/>
<path d="M132.779 67.3864C131.612 67.3864 130.67 66.4435 130.67 65.2771C130.67 57.137 124.044 50.5114 115.904 50.5114C112.145 50.5114 108.812 52.5533 106.677 54.2661C105.766 54.996 104.442 54.8483 103.712 53.9413C102.982 53.0321 103.13 51.7032 104.037 50.9755C107.855 47.9127 111.957 46.2927 115.904 46.2927C126.373 46.2927 134.888 54.8082 134.888 65.2771C134.888 66.4435 133.945 67.3864 132.779 67.3864V67.3864Z" fill="black"/>
<path d="M132.779 88.4802C131.612 88.4802 130.669 87.5373 130.669 86.3708C130.669 78.2307 124.044 71.6052 115.904 71.6052C114.737 71.6052 113.794 70.6623 113.794 69.4958C113.794 68.3293 114.737 67.3864 115.904 67.3864C126.373 67.3864 134.888 75.902 134.888 86.3708C134.888 87.5373 133.945 88.4802 132.779 88.4802Z" fill="black"/>
<path d="M99.0288 71.6052C97.8623 71.6052 96.9194 70.6623 96.9194 69.4958C96.9194 68.3293 97.8623 67.3864 99.0288 67.3864C101.355 67.3864 103.248 65.4943 103.248 63.1677C103.248 62.0012 104.19 61.0583 105.357 61.0583C106.523 61.0583 107.466 62.0012 107.466 63.1677C107.466 67.821 103.682 71.6052 99.0288 71.6052Z" fill="black"/>
<path d="M99.0288 61.0878C97.8623 61.0878 96.9194 60.1449 96.9194 58.9785C96.9194 54.3252 100.704 50.541 105.357 50.541C106.523 50.541 107.466 51.4838 107.466 52.6503C107.466 53.8168 106.523 54.7597 105.357 54.7597C103.03 54.7597 101.138 56.6518 101.138 58.9785C101.138 60.1428 100.195 61.0878 99.0288 61.0878Z" fill="black"/>
<path d="M111.685 71.6052C107.032 71.6052 103.248 67.821 103.248 63.1677C103.248 62.0012 104.19 61.0583 105.357 61.0583C106.523 61.0583 107.466 62.0012 107.466 63.1677C107.466 65.4943 109.358 67.3864 111.685 67.3864C112.852 67.3864 113.794 68.3293 113.794 69.4958C113.794 70.6623 112.852 71.6052 111.685 71.6052Z" fill="black"/>
<path d="M105.357 65.2771C104.19 65.2771 103.248 64.3342 103.248 63.1677V52.6208C103.248 51.4543 104.19 50.5114 105.357 50.5114C106.523 50.5114 107.466 51.4543 107.466 52.6208V63.1677C107.466 64.3342 106.523 65.2771 105.357 65.2771Z" fill="black"/>
<path d="M132.779 88.4802C131.612 88.4802 130.669 87.5373 130.669 86.3708V65.277C130.669 64.1106 131.612 63.1677 132.779 63.1677C133.945 63.1677 134.888 64.1106 134.888 65.277V86.3708C134.888 87.5373 133.945 88.4802 132.779 88.4802Z" fill="black"/>
<path d="M115.904 71.6052H111.685C110.519 71.6052 109.576 70.6623 109.576 69.4958C109.576 68.3293 110.519 67.3864 111.685 67.3864H115.904C117.07 67.3864 118.013 68.3293 118.013 69.4958C118.013 70.6623 117.07 71.6052 115.904 71.6052Z" fill="black"/>
<path d="M8.33008 69.4958C7.16359 69.4958 6.2207 68.5529 6.2207 67.3865V66.3402C6.2207 65.1737 7.16359 64.2308 8.33008 64.2308C9.49656 64.2308 10.4395 65.1737 10.4395 66.3402V67.3865C10.4395 68.5529 9.49656 69.4958 8.33008 69.4958V69.4958Z" fill="black"/>
<path d="M69.4934 56.8395C54.3734 56.8395 42.0715 44.5377 42.0715 29.4177C42.0715 14.2977 54.3734 1.99579 69.4934 1.99579C84.6134 1.99579 96.9153 14.2977 96.9153 29.4177C96.9153 44.5377 84.6134 56.8395 69.4934 56.8395ZM69.4934 6.21454C56.7001 6.21454 46.2903 16.6243 46.2903 29.4177C46.2903 42.211 56.7001 52.6208 69.4934 52.6208C82.2868 52.6208 92.6966 42.211 92.6966 29.4177C92.6966 16.6243 82.2889 6.21454 69.4934 6.21454Z" fill="black"/>
<path d="M69.5105 25.1989C66.0216 25.1989 63.1824 22.3597 63.1824 18.8708C63.1824 15.3819 66.0216 12.5427 69.5105 12.5427C72.9994 12.5427 75.8386 15.3819 75.8386 18.8708C75.8386 22.3597 72.9994 25.1989 69.5105 25.1989ZM69.5105 16.7614C68.3461 16.7614 67.4011 17.7064 67.4011 18.8708C67.4011 20.0352 68.3461 20.9802 69.5105 20.9802C70.6749 20.9802 71.6199 20.0352 71.6199 18.8708C71.6199 17.7064 70.6749 16.7614 69.5105 16.7614Z" fill="black"/>
<path d="M69.5105 16.7656C68.344 16.7656 67.4011 15.8227 67.4011 14.6562V10.4375C67.4011 9.27102 68.344 8.32812 69.5105 8.32812C70.677 8.32812 71.6199 9.27102 71.6199 10.4375V14.6562C71.6199 15.8227 70.677 16.7656 69.5105 16.7656Z" fill="black"/>
<path d="M58.9657 46.2968C58.7105 46.2968 58.4532 46.2525 58.2 46.1534C57.1137 45.7315 56.5779 44.5081 57.0019 43.4218L65.4373 21.7585C65.8592 20.6721 67.0742 20.1322 68.1689 20.5604C69.2553 20.9822 69.7911 22.2057 69.3671 23.292L60.9317 44.9553C60.6068 45.7864 59.8095 46.2968 58.9657 46.2968V46.2968Z" fill="black"/>
<path d="M80.0636 46.2969C79.2199 46.2969 78.4246 45.7885 78.0977 44.9532L69.6539 23.2899C69.232 22.2036 69.7678 20.9802 70.852 20.5583C71.9362 20.1343 73.1596 20.6722 73.5836 21.7564L82.0275 43.4197C82.4493 44.506 81.9135 45.7295 80.8293 46.1513C80.5783 46.2526 80.3189 46.2969 80.0636 46.2969V46.2969Z" fill="black"/>
<path d="M80.0573 35.75H58.9614C57.7949 35.75 56.8521 34.8071 56.8521 33.6406C56.8521 32.4741 57.7949 31.5312 58.9614 31.5312H80.0573C81.2238 31.5312 82.1667 32.4741 82.1667 33.6406C82.1667 34.8071 81.2238 35.75 80.0573 35.75Z" fill="black"/>
<path d="M65.279 120.117C64.9647 120.117 64.644 120.047 64.3424 119.897L60.1236 117.801C59.0816 117.282 58.6555 116.016 59.1744 114.972C59.6933 113.93 60.9526 113.504 62.0031 114.023L66.2218 116.119C67.2639 116.638 67.69 117.904 67.1711 118.948C66.8019 119.688 66.0552 120.117 65.279 120.117V120.117Z" fill="black"/>
<path d="M65.2832 120.117C64.5091 120.117 63.7624 119.688 63.3932 118.948C62.8722 117.906 63.2962 116.638 64.3382 116.119L68.557 114.014C69.6053 113.491 70.8689 113.919 71.3857 114.959C71.9067 116.001 71.4827 117.269 70.4407 117.788L66.2219 119.893C65.9203 120.047 65.5975 120.117 65.2832 120.117V120.117Z" fill="black"/>
<path d="M73.7207 120.117C72.9444 120.117 72.1977 119.688 71.8307 118.946C71.3118 117.902 71.7379 116.636 72.7799 116.117L76.9986 114.02C78.047 113.502 79.3084 113.928 79.8273 114.97C80.3462 116.014 79.9201 117.279 78.8781 117.798L74.6593 119.895C74.3556 120.047 74.035 120.117 73.7207 120.117Z" fill="black"/>
<path d="M73.7166 120.117C73.4023 120.117 73.0796 120.047 72.7779 119.895L68.5592 117.79C67.5172 117.271 67.0932 116.003 67.6142 114.961C68.1331 113.921 69.3987 113.493 70.4429 114.016L74.6616 116.121C75.7036 116.64 76.1276 117.908 75.6066 118.95C75.2375 119.688 74.4908 120.117 73.7166 120.117Z" fill="black"/>
<path d="M20.9864 101.132C20.4485 101.132 19.9106 100.928 19.5014 100.521L17.392 98.428C16.563 97.6075 16.5588 96.2722 17.3794 95.4454C18.202 94.6164 19.5394 94.6143 20.362 95.4327L22.4714 97.5252C23.3004 98.3457 23.3046 99.681 22.484 100.508C22.0727 100.923 21.5285 101.132 20.9864 101.132V101.132Z" fill="black"/>
<path d="M20.9885 101.132C20.2144 101.132 19.4698 100.706 19.0985 99.9657C18.5775 98.9236 18.9994 97.6559 20.0414 97.1349L24.2601 95.0255C25.3022 94.5066 26.5699 94.9264 27.0909 95.9684C27.6119 97.0104 27.1901 98.2782 26.148 98.7992L21.9293 100.909C21.6276 101.06 21.3049 101.132 20.9885 101.132V101.132Z" fill="black"/>
<path d="M29.4239 101.132C28.8818 101.132 28.3376 100.923 27.9262 100.508C27.1057 99.6809 27.1099 98.3457 27.9389 97.5251L30.0483 95.4326C30.8709 94.6121 32.2083 94.6142 33.0309 95.4453C33.8515 96.2722 33.8472 97.6074 33.0183 98.4279L30.9089 100.52C30.4997 100.928 29.9618 101.132 29.4239 101.132Z" fill="black"/>
<path d="M29.4216 101.132C29.1052 101.132 28.7825 101.06 28.4808 100.911L24.2621 98.8013C23.2201 98.2803 22.7982 97.0126 23.3192 95.9705C23.8423 94.9285 25.108 94.5087 26.15 95.0276L30.3687 97.137C31.4108 97.658 31.8326 98.9258 31.3116 99.9678C30.9404 100.706 30.1958 101.132 29.4216 101.132Z" fill="black"/>
<path d="M109.576 101.132C109.038 101.132 108.5 100.928 108.091 100.521L105.981 98.428C105.152 97.6075 105.148 96.2722 105.969 95.4454C106.791 94.6164 108.129 94.6143 108.951 95.4327L111.061 97.5252C111.89 98.3457 111.894 99.681 111.073 100.508C110.662 100.923 110.118 101.132 109.576 101.132Z" fill="black"/>
<path d="M109.578 101.132C108.804 101.132 108.059 100.706 107.688 99.9657C107.167 98.9236 107.589 97.6559 108.631 97.1349L112.85 95.0255C113.892 94.5066 115.16 94.9264 115.681 95.9684C116.202 97.0104 115.78 98.2782 114.738 98.7992L110.519 100.909C110.217 101.06 109.895 101.132 109.578 101.132V101.132Z" fill="black"/>
<path d="M118.013 101.132C117.471 101.132 116.927 100.923 116.516 100.508C115.695 99.6809 115.699 98.3457 116.528 97.5251L118.638 95.4326C119.458 94.6121 120.795 94.6142 121.62 95.4453C122.441 96.2722 122.437 97.6074 121.608 98.4279L119.498 100.52C119.089 100.928 118.551 101.132 118.013 101.132Z" fill="black"/>
<path d="M118.011 101.132C117.695 101.132 117.372 101.06 117.07 100.911L112.852 98.8013C111.81 98.2803 111.388 97.0126 111.909 95.9705C112.432 94.9285 113.695 94.5087 114.74 95.0276L118.958 97.137C120 97.658 120.422 98.9258 119.901 99.9678C119.53 100.706 118.785 101.132 118.011 101.132Z" fill="black"/>
</g>
<defs>
<clipPath id="clip0">
<rect width="135" height="135" fill="white" transform="translate(2 2)"/>
</clipPath>
</defs>
</svg>
