<svg width="164" height="44" viewBox="0 0 164 44" fill="none" xmlns="http://www.w3.org/2000/svg">
<rect width="88" height="44" fill="#FF003D"/>
<path fill-rule="evenodd" clip-rule="evenodd" d="M13 11H19.9632V19.25H35.2822V11H42.2453V33H35.2822V24.75H19.9632V33H13V11ZM53.3864 11V19.25H58.2606L67.3128 11H75.6686L64.0633 22L75.6686 33H67.3128L58.2606 24.75H53.3864V33H46.4232V11H53.3864Z" fill="white"/>
<path d="M121.727 33.011H115.292L114.203 29.843H105.524L104.435 33.011H98L106.283 11H113.411L121.727 33.011ZM112.652 24.893L109.847 16.61L107.042 24.893H112.652Z" fill="black"/>
<path d="M130.029 33.011H124.353V22.0055V11H135.375C137.751 11 139.621 11.704 140.985 13.112C142.349 14.498 143.031 16.236 143.031 18.326C143.031 20.394 142.349 22.132 140.985 23.54C139.621 24.926 137.751 25.619 135.375 25.619H130.029V33.011ZM134.616 20.669C135.386 20.669 136.013 20.46 136.497 20.042C137.003 19.624 137.256 19.052 137.256 18.326C137.256 17.578 137.003 16.995 136.497 16.577C136.013 16.159 135.386 15.95 134.616 15.95H130.029V20.669H134.616Z" fill="black"/>
<path d="M157.151 33.011H151.475V15.95H145.304V11H163.289V15.95H157.151V33.011Z" fill="black"/>
</svg>
