<svg width="140" height="140" viewBox="0 0 140 140" fill="none" xmlns="http://www.w3.org/2000/svg">
<g clip-path="url(#clip0)">
<path d="M125.247 87.8722C124.155 87.8722 123.27 86.9881 123.27 85.8959C123.27 85.7348 123.289 85.5714 123.328 85.415C124.366 81.2537 124.891 76.9487 124.891 72.6195C124.891 62.2229 121.869 52.1391 116.152 43.4579C115.551 42.5459 115.804 41.3195 116.716 40.7186C117.628 40.1177 118.855 40.3703 119.455 41.2826C125.599 50.6113 128.846 61.4477 128.846 72.6195C128.846 77.2564 128.284 81.8691 127.177 86.3299C126.978 87.2124 126.189 87.8722 125.247 87.8722V87.8722Z" fill="black"/>
<path d="M75.3649 70.5842C74.7447 70.3649 74.1095 70.1347 73.4767 69.8947V59.959C75.1041 60.3229 76.0762 61.1506 76.1575 61.222C76.9603 61.9503 78.2022 61.8965 78.9389 61.0986C79.6799 60.296 79.6298 59.0449 78.8274 58.3042C78.7101 58.1959 76.7246 56.4076 73.4767 55.9417V53.8748C73.4767 52.7827 72.5913 51.8973 71.4992 51.8973C70.407 51.8973 69.5216 52.7827 69.5216 53.8748V56.0915C69.1941 56.1614 68.8609 56.2444 68.5202 56.347C65.6 57.23 63.4176 59.7325 62.8251 62.8779C62.2851 65.7451 63.2017 68.5102 65.2201 70.0967C66.3043 70.9455 67.6588 71.7238 69.5214 72.5491V85.0864C67.8536 84.9744 66.7325 84.5902 64.877 83.3742C63.9637 82.7754 62.7376 83.0303 62.1391 83.944C61.5403 84.8573 61.7955 86.0831 62.7089 86.6819C65.3527 88.415 67.157 88.9192 69.5211 89.046V91.3663C69.5211 92.4584 70.4065 93.3439 71.4986 93.3439C72.5908 93.3439 73.4762 92.4584 73.4762 91.3663V88.8941C78.1123 88.0156 80.8205 84.2074 81.4185 80.6512C82.1832 76.1087 79.8069 72.1573 75.3649 70.5842V70.5842ZM67.6611 66.9846C66.8098 66.3154 66.4459 65.0223 66.7119 63.6101C66.9548 62.321 67.8225 60.7659 69.5216 60.1826V68.1584C68.8184 67.7846 68.1835 67.3935 67.6611 66.9846V66.9846ZM77.5188 79.9949C77.1903 81.9485 75.8147 84.0265 73.4767 84.807V74.109C73.6642 74.1765 73.8509 74.244 74.0454 74.3128C77.9241 75.6863 77.6846 79.0093 77.5188 79.9949V79.9949Z" fill="black"/>
<path d="M71.6864 43.8547C55.8252 43.8547 42.9214 56.7591 42.9214 72.6205C42.9214 88.478 55.8252 101.379 71.6864 101.379C87.5434 101.379 100.444 88.4778 100.444 72.6205C100.444 56.7591 87.5431 43.8547 71.6864 43.8547ZM71.6864 97.4239C58.0061 97.4239 46.8765 86.2972 46.8765 72.6208C46.8765 58.9402 58.0061 47.8101 71.6864 47.8101C85.3625 47.8101 96.4887 58.9402 96.4887 72.6208C96.4887 86.2972 85.3623 97.4239 71.6864 97.4239Z" fill="black"/>
<path d="M135.022 21.8065C136.115 21.8065 137 20.9211 137 19.8289V8.04941C137 6.1101 135.422 4.53202 133.483 4.53202H100.693C98.7581 4.53202 97.1837 6.10984 97.1837 8.04941V21.4782C89.2931 17.5281 80.5465 15.4517 71.6858 15.4517C65.248 15.4517 58.9552 16.5172 52.9377 18.6197V17.2953C52.9377 16.2032 52.0523 15.3178 50.9602 15.3178H49.0211V6.88319C49.0211 5.09628 47.5672 3.6424 45.7803 3.6424H39.5996C37.8088 3.6424 36.3514 5.09628 36.3514 6.88319V15.3175H31.6963V9.65622C31.6963 8.94536 31.3148 8.28935 30.6973 7.93761C30.0797 7.58613 29.3206 7.59273 28.7094 7.95554L18.8257 13.8217V9.65622C18.8257 8.94536 18.4442 8.28935 17.8266 7.93761C17.2091 7.58587 16.45 7.59273 15.8388 7.95554L2.9682 15.5944C2.36809 15.9506 2 16.5971 2 17.2951V42.3716C2 43.4637 2.88541 44.3491 3.97754 44.3491H22.0333C17.1126 52.9519 14.5257 62.6524 14.5257 72.6197C14.5257 79.2163 15.6479 85.6707 17.8585 91.8317L3.2738 101.308C2.71244 101.673 2.37362 102.297 2.37362 102.967V113.535C2.37362 114.627 3.25903 115.513 4.35116 115.513C5.44329 115.513 6.3287 114.627 6.3287 113.535V104.04L25.2638 91.7365L44.1988 104.04V131.402H36.2776V115.202C36.2776 113.292 34.7267 111.737 32.8201 111.737H17.7077C15.8014 111.737 14.2502 113.292 14.2502 115.202V131.402H6.3287V123.357C6.3287 122.264 5.44329 121.379 4.35116 121.379C3.25903 121.379 2.37362 122.264 2.37362 123.357V132.034C2.37362 133.866 3.86416 135.357 5.69642 135.357H44.824C46.6602 135.357 48.1542 133.867 48.1542 132.034V124.694C55.5112 128.029 63.5808 129.783 71.6858 129.783C79.9599 129.783 88.1751 127.964 95.6515 124.498V131.952C95.6515 133.83 97.179 135.358 99.0566 135.358H132.623C134.501 135.358 136.028 133.83 136.028 131.952V123.656C136.028 117.457 132.39 111.97 126.977 109.435C129.748 106.615 131.462 102.753 131.462 98.4968V97.3158C131.462 92.0872 129.788 87.6448 126.62 84.4694C123.785 81.6265 119.969 80.0236 115.876 79.9561C115.855 79.9559 115.833 79.9559 115.811 79.9561C111.715 80.0234 107.897 81.6262 105.061 84.4692C101.893 87.6443 100.218 92.0866 100.218 97.3158V98.4968C100.218 102.753 101.932 106.615 104.704 109.435C100.431 111.435 97.2649 115.277 96.1203 119.855C88.6091 123.761 80.1827 125.827 71.6861 125.827C63.5378 125.827 55.4297 123.922 48.1544 120.315V102.966C48.1544 102.297 47.8156 101.673 47.2543 101.308L26.3417 87.7197C25.6864 87.2941 24.8419 87.2941 24.1867 87.7197L21.2712 89.6139C19.4187 84.1496 18.4808 78.4442 18.4808 72.6195C18.4808 62.5783 21.3005 52.8275 26.6444 44.3488H50.9604C52.0526 44.3488 52.938 43.4634 52.938 42.3713V22.8272C58.9281 20.5572 65.2282 19.4068 71.6861 19.4068C80.6019 19.4068 89.3906 21.6694 97.184 25.949V40.8394C97.184 42.7747 98.7583 44.3494 100.694 44.3494H133.483C135.422 44.3494 137 42.7747 137 40.8394V29.5157C137 28.4236 136.115 27.5382 135.022 27.5382C133.93 27.5382 133.045 28.4236 133.045 29.5157V40.394H101.139V8.4871H110.039V19.7393C110.039 21.5592 111.52 23.0399 113.34 23.0399H120.844C122.664 23.0399 124.144 21.5594 124.144 19.7393V8.4871H133.045V19.8289C133.045 20.9211 133.93 21.8065 135.022 21.8065V21.8065ZM32.3228 131.402H18.2053V124.804H32.3228V131.402ZM32.3228 120.848H18.2053V115.692H32.3228V120.848ZM115.844 83.9112C121.177 84.0143 126.885 87.8299 127.459 95.9531C124.213 96.8177 119.95 95.7351 115.812 94.6841C112.861 93.9344 109.861 93.1724 107.188 93.1724C106.275 93.1724 105.401 93.2613 104.58 93.4701C106.025 87.0492 111.083 84.0032 115.844 83.9112V83.9112ZM104.173 98.4968V98.0577C105.944 96.4256 109.606 97.1882 114.839 98.5173C118.044 99.3315 121.518 100.214 124.808 100.214C125.691 100.214 126.559 100.146 127.406 100.001C126.666 105.723 121.765 110.16 115.844 110.16C109.409 110.16 104.173 104.928 104.173 98.4968V98.4968ZM99.6066 123.656C99.6066 118.254 103.299 113.574 108.481 112.268C110.677 113.445 113.183 114.115 115.844 114.115C118.503 114.115 121.008 113.445 123.202 112.268C128.382 113.576 132.074 118.255 132.074 123.655V131.402H99.6066V123.656ZM40.3065 7.59774H45.0663V15.3175H40.3065V7.59774ZM25.4913 40.3943H16.0152V32.4876H25.4913V40.3943ZM48.9829 40.3943H29.4467V31.8629C29.4467 30.0265 27.9527 28.5325 26.1162 28.5325H15.3906C13.5541 28.5325 12.0601 30.0265 12.0601 31.8629V40.3943H5.95508V18.4209L14.8706 13.1296V17.2951C14.8706 18.0059 15.2521 18.6619 15.8697 19.0137C16.4872 19.3654 17.2463 19.3586 17.8575 18.9957L27.741 13.1296V17.2951C27.741 18.3872 28.6264 19.2726 29.7185 19.2726H48.9826V40.3943H48.9829ZM120.189 19.0846H113.995V8.4871H120.19V19.0846H120.189Z" fill="black"/>
</g>
<defs>
<clipPath id="clip0">
<rect width="135" height="135" fill="white" transform="translate(2 2)"/>
</clipPath>
</defs>
</svg>
