<svg width="140" height="140" viewBox="0 0 140 140" fill="none" xmlns="http://www.w3.org/2000/svg">
<g clip-path="url(#clip0)">
<path d="M123.71 121.157C124.813 121.157 125.707 120.263 125.707 119.16V117.911C125.707 107.482 118.69 98.2505 108.644 95.4624L86.7767 89.3866L80.9738 83.5838V75.0093C88.3515 71.495 93.8958 64.7343 95.7477 56.5852H98.4143C102.452 56.5852 105.737 53.3007 105.737 49.2632V45.5347C105.737 43.3924 104.812 41.4622 103.341 40.1222V5.99422H112.394V25.4658C109.621 26.3206 107.601 28.9069 107.601 31.9556C107.601 35.0043 109.621 37.5906 112.394 38.4454V43.4047C112.394 44.5078 113.288 45.4018 114.391 45.4018C115.493 45.4018 116.387 44.5078 116.387 43.4047V38.4454C119.16 37.5906 121.181 35.0043 121.181 31.9556C121.181 28.9069 119.16 26.3206 116.387 25.4658V5.99422H118.384C119.487 5.99422 120.381 5.1002 120.381 3.99711C120.381 2.89401 119.488 2 118.385 2H20.3963C19.2942 2 18.3992 2.89401 18.3992 3.99711C18.3992 5.1002 19.2942 5.99422 20.3963 5.99422H35.441V9.99976C35.441 11.1018 36.335 11.9958 37.4381 11.9958C38.5412 11.9958 39.4352 11.1018 39.4352 9.99976V5.99422H99.3464V29.426H39.4352V19.3241C39.4352 18.221 38.5412 17.327 37.4381 17.327C36.335 17.327 35.441 18.221 35.441 19.3241V40.1222C33.9692 41.4622 33.0443 43.3934 33.0443 45.5357V49.2632C33.0443 53.3007 36.3299 56.5863 40.3673 56.5863H43.035C44.8858 64.7354 50.4301 71.4961 57.8078 75.0103V83.5838L52.005 89.3877L30.1377 95.4624C20.0914 98.2505 13.0742 107.482 13.0742 117.912V119.16C13.0742 120.263 13.9682 121.157 15.0713 121.157C16.1744 121.157 17.0684 120.263 17.0684 119.16V117.912C17.0684 109.27 22.8816 101.622 31.2068 99.3114L44.376 95.653L51.7763 119.096C51.868 119.385 52.0245 119.651 52.2336 119.872L64.7333 133.007H37.3053V126.749C37.3053 125.646 36.4112 124.752 35.3081 124.752C34.205 124.752 33.311 125.646 33.311 126.749V133.006H17.0684V128.463C17.0684 127.359 16.1744 126.465 15.0713 126.465C13.9682 126.465 13.0742 127.359 13.0742 128.463V135.003C13.0742 136.106 13.9682 137 15.0713 137H123.71C124.813 137 125.707 136.106 125.707 135.003V128.463C125.707 127.359 124.813 126.465 123.71 126.465C122.607 126.465 121.713 127.359 121.713 128.463V133.006H105.471V126.749C105.471 125.646 104.577 124.752 103.474 124.752C102.37 124.752 101.476 125.646 101.476 126.749V133.006H74.0483L86.548 119.871C86.7571 119.65 86.9137 119.385 87.0053 119.095L94.4057 95.6519L107.576 99.3114C115.9 101.621 121.713 109.269 121.713 117.911V119.16C121.713 120.263 122.607 121.157 123.71 121.157V121.157ZM114.391 34.752C112.849 34.752 111.595 33.4975 111.595 31.9556C111.595 30.4137 112.849 29.1592 114.391 29.1592C115.933 29.1592 117.187 30.4137 117.187 31.9556C117.187 33.4975 115.932 34.752 114.391 34.752ZM65.9693 112.236H72.8124L75.5027 125.684L69.3908 132.106L63.279 125.684L65.9693 112.236ZM73.5385 108.242H65.2431L61.8659 104.346L69.3908 96.8209L76.9147 104.346L73.5385 108.242ZM78.9901 100.772L72.215 93.9968L78.9767 87.2361L83.1224 91.3806L78.9901 100.772ZM101.743 49.2632C101.743 51.0986 100.25 52.591 98.4143 52.591H96.4172V42.2069H98.4143C100.25 42.2069 101.743 43.7003 101.743 45.5357V49.2632ZM99.3464 38.2745C99.0405 38.2353 98.7305 38.2127 98.4143 38.2127H96.4172V33.4202H99.3464V38.2745ZM39.4352 33.4202H42.3645V38.2137H40.3673C40.0511 38.2137 39.7411 38.2353 39.4352 38.2745V33.4202ZM42.3645 52.592H40.3673C38.5319 52.592 37.0385 51.0986 37.0385 49.2632V45.5357C37.0385 43.7003 38.5319 42.2069 40.3673 42.2069H42.3645V52.592ZM46.3587 50.5949V33.4202H92.423V50.5949C92.423 63.2955 82.0914 73.6271 69.3908 73.6271C56.6903 73.6271 46.3587 63.2944 46.3587 50.5949V50.5949ZM69.3908 77.6213C72.0245 77.6213 74.5705 77.2412 76.9796 76.5357V83.5838L69.3908 91.1726L61.802 83.5838V76.5347C64.2111 77.2412 66.7572 77.6213 69.3908 77.6213V77.6213ZM59.8049 87.235L66.5667 93.9968L59.7915 100.772L55.6593 91.3806L59.8049 87.235ZM48.227 94.5818L52.2161 93.4735L57.3052 105.039C57.3371 105.112 57.3742 105.184 57.4154 105.254C57.4257 105.273 57.438 105.29 57.4494 105.309C57.4772 105.353 57.507 105.396 57.539 105.44C57.5555 105.462 57.573 105.484 57.5905 105.506C57.6039 105.522 57.6162 105.54 57.6306 105.556L62.181 110.808L59.9141 122.147L55.4461 117.452L48.227 94.5818ZM83.3356 117.452L78.8676 122.147L76.6006 110.808L81.151 105.556C81.1654 105.54 81.1778 105.522 81.1912 105.506C81.2087 105.484 81.2262 105.461 81.2437 105.439C81.2746 105.396 81.3045 105.353 81.3323 105.309C81.3436 105.29 81.356 105.273 81.3673 105.253C81.4075 105.183 81.4445 105.112 81.4765 105.039L86.5655 93.4735L90.5546 94.5818L83.3356 117.452Z" fill="black"/>
</g>
<defs>
<clipPath id="clip0">
<rect width="135" height="135" fill="white" transform="translate(2 2)"/>
</clipPath>
</defs>
</svg>
